{
    "asset" : {
        "generator" : "Khronos glTF Blender I/O v1.4.40",
        "version" : "2.0"
    },
    "scene" : 0,
    "scenes" : [
        {
            "name" : "Scene",
            "nodes" : [
                0,
                1,
                2,
                3,
                4,
                5
            ]
        }
    ],
    "nodes" : [
        {
            "mesh" : 0,
            "name" : "knight",
            "translation" : [
                0,
                0,
                -2
            ]
        },
        {
            "mesh" : 1,
            "name" : "king",
            "translation" : [
                0,
                0,
                -8
            ]
        },
        {
            "mesh" : 2,
            "name" : "queen",
            "translation" : [
                0,
                0,
                -10
            ]
        },
        {
            "mesh" : 3,
            "name" : "pawn"
        },
        {
            "mesh" : 4,
            "name" : "rook",
            "translation" : [
                0,
                0,
                -6
            ]
        },
        {
            "mesh" : 5,
            "name" : "bishop",
            "translation" : [
                0,
                0,
                -4
            ]
        }
    ],
    "materials" : [
        {
            "doubleSided" : true,
            "name" : "Material",
            "pbrMetallicRoughness" : {
                "baseColorFactor" : [
                    0.800000011920929,
                    0.800000011920929,
                    0.800000011920929,
                    1
                ],
                "metallicFactor" : 0,
                "roughnessFactor" : 0.4000000059604645
            }
        }
    ],
    "meshes" : [
        {
            "name" : "Cube",
            "primitives" : [
                {
                    "attributes" : {
                        "POSITION" : 0,
                        "NORMAL" : 1,
                        "TEXCOORD_0" : 2
                    },
                    "indices" : 3,
                    "material" : 0
                }
            ]
        },
        {
            "name" : "Cube.001",
            "primitives" : [
                {
                    "attributes" : {
                        "POSITION" : 4,
                        "NORMAL" : 5,
                        "TEXCOORD_0" : 6
                    },
                    "indices" : 7
                }
            ]
        },
        {
            "name" : "Cube.003",
            "primitives" : [
                {
                    "attributes" : {
                        "POSITION" : 8,
                        "NORMAL" : 9,
                        "TEXCOORD_0" : 10
                    },
                    "indices" : 11
                }
            ]
        },
        {
            "name" : "Cube.004",
            "primitives" : [
                {
                    "attributes" : {
                        "POSITION" : 12,
                        "NORMAL" : 13,
                        "TEXCOORD_0" : 14
                    },
                    "indices" : 15
                }
            ]
        },
        {
            "name" : "Cube.005",
            "primitives" : [
                {
                    "attributes" : {
                        "POSITION" : 16,
                        "NORMAL" : 17,
                        "TEXCOORD_0" : 18
                    },
                    "indices" : 15
                }
            ]
        },
        {
            "name" : "Cube.007",
            "primitives" : [
                {
                    "attributes" : {
                        "POSITION" : 19,
                        "NORMAL" : 20,
                        "TEXCOORD_0" : 21
                    },
                    "indices" : 22
                }
            ]
        }
    ],
    "accessors" : [
        {
            "bufferView" : 0,
            "componentType" : 5126,
            "count" : 72,
            "max" : [
                0.5,
                1,
                0.5
            ],
            "min" : [
                -0.5,
                0,
                -0.5
            ],
            "type" : "VEC3"
        },
        {
            "bufferView" : 1,
            "componentType" : 5126,
            "count" : 72,
            "type" : "VEC3"
        },
        {
            "bufferView" : 2,
            "componentType" : 5126,
            "count" : 72,
            "type" : "VEC2"
        },
        {
            "bufferView" : 3,
            "componentType" : 5123,
            "count" : 144,
            "type" : "SCALAR"
        },
        {
            "bufferView" : 4,
            "componentType" : 5126,
            "count" : 48,
            "max" : [
                0.5,
                1.7068490982055664,
                0.5
            ],
            "min" : [
                -0.5,
                -2.9802322387695312e-08,
                -0.5
            ],
            "type" : "VEC3"
        },
        {
            "bufferView" : 5,
            "componentType" : 5126,
            "count" : 48,
            "type" : "VEC3"
        },
        {
            "bufferView" : 6,
            "componentType" : 5126,
            "count" : 48,
            "type" : "VEC2"
        },
        {
            "bufferView" : 7,
            "componentType" : 5123,
            "count" : 72,
            "type" : "SCALAR"
        },
        {
            "bufferView" : 8,
            "componentType" : 5126,
            "count" : 2008,
            "max" : [
                0.5000001192092896,
                2.0000014305114746,
                0.5000000596046448
            ],
            "min" : [
                -0.5,
                1.5497207641601562e-06,
                -0.5
            ],
            "type" : "VEC3"
        },
        {
            "bufferView" : 9,
            "componentType" : 5126,
            "count" : 2008,
            "type" : "VEC3"
        },
        {
            "bufferView" : 10,
            "componentType" : 5126,
            "count" : 2008,
            "type" : "VEC2"
        },
        {
            "bufferView" : 11,
            "componentType" : 5123,
            "count" : 2916,
            "type" : "SCALAR"
        },
        {
            "bufferView" : 12,
            "componentType" : 5126,
            "count" : 24,
            "max" : [
                0.25,
                0.5,
                0.25
            ],
            "min" : [
                -0.25,
                0,
                -0.25
            ],
            "type" : "VEC3"
        },
        {
            "bufferView" : 13,
            "componentType" : 5126,
            "count" : 24,
            "type" : "VEC3"
        },
        {
            "bufferView" : 14,
            "componentType" : 5126,
            "count" : 24,
            "type" : "VEC2"
        },
        {
            "bufferView" : 15,
            "componentType" : 5123,
            "count" : 36,
            "type" : "SCALAR"
        },
        {
            "bufferView" : 16,
            "componentType" : 5126,
            "count" : 24,
            "max" : [
                0.5,
                1,
                0.5
            ],
            "min" : [
                -0.5,
                0,
                -0.5
            ],
            "type" : "VEC3"
        },
        {
            "bufferView" : 17,
            "componentType" : 5126,
            "count" : 24,
            "type" : "VEC3"
        },
        {
            "bufferView" : 18,
            "componentType" : 5126,
            "count" : 24,
            "type" : "VEC2"
        },
        {
            "bufferView" : 19,
            "componentType" : 5126,
            "count" : 132,
            "max" : [
                0.49992451071739197,
                1,
                0.49992451071739197
            ],
            "min" : [
                -0.49992451071739197,
                0,
                -0.49992451071739197
            ],
            "type" : "VEC3"
        },
        {
            "bufferView" : 20,
            "componentType" : 5126,
            "count" : 132,
            "type" : "VEC3"
        },
        {
            "bufferView" : 21,
            "componentType" : 5126,
            "count" : 132,
            "type" : "VEC2"
        },
        {
            "bufferView" : 22,
            "componentType" : 5123,
            "count" : 240,
            "type" : "SCALAR"
        }
    ],
    "bufferViews" : [
        {
            "buffer" : 0,
            "byteLength" : 864,
            "byteOffset" : 0
        },
        {
            "buffer" : 0,
            "byteLength" : 864,
            "byteOffset" : 864
        },
        {
            "buffer" : 0,
            "byteLength" : 576,
            "byteOffset" : 1728
        },
        {
            "buffer" : 0,
            "byteLength" : 288,
            "byteOffset" : 2304
        },
        {
            "buffer" : 0,
            "byteLength" : 576,
            "byteOffset" : 2592
        },
        {
            "buffer" : 0,
            "byteLength" : 576,
            "byteOffset" : 3168
        },
        {
            "buffer" : 0,
            "byteLength" : 384,
            "byteOffset" : 3744
        },
        {
            "buffer" : 0,
            "byteLength" : 144,
            "byteOffset" : 4128
        },
        {
            "buffer" : 0,
            "byteLength" : 24096,
            "byteOffset" : 4272
        },
        {
            "buffer" : 0,
            "byteLength" : 24096,
            "byteOffset" : 28368
        },
        {
            "buffer" : 0,
            "byteLength" : 16064,
            "byteOffset" : 52464
        },
        {
            "buffer" : 0,
            "byteLength" : 5832,
            "byteOffset" : 68528
        },
        {
            "buffer" : 0,
            "byteLength" : 288,
            "byteOffset" : 74360
        },
        {
            "buffer" : 0,
            "byteLength" : 288,
            "byteOffset" : 74648
        },
        {
            "buffer" : 0,
            "byteLength" : 192,
            "byteOffset" : 74936
        },
        {
            "buffer" : 0,
            "byteLength" : 72,
            "byteOffset" : 75128
        },
        {
            "buffer" : 0,
            "byteLength" : 288,
            "byteOffset" : 75200
        },
        {
            "buffer" : 0,
            "byteLength" : 288,
            "byteOffset" : 75488
        },
        {
            "buffer" : 0,
            "byteLength" : 192,
            "byteOffset" : 75776
        },
        {
            "buffer" : 0,
            "byteLength" : 1584,
            "byteOffset" : 75968
        },
        {
            "buffer" : 0,
            "byteLength" : 1584,
            "byteOffset" : 77552
        },
        {
            "buffer" : 0,
            "byteLength" : 1056,
            "byteOffset" : 79136
        },
        {
            "buffer" : 0,
            "byteLength" : 480,
            "byteOffset" : 80192
        }
    ],
    "buffers" : [
        {
            "byteLength" : 80672,
            "uri" : "data:application/octet-stream;base64,"
        }
    ]
}
